<svg width="337" height="52" viewBox="0 0 337 52" fill="none" xmlns="http://www.w3.org/2000/svg">
<path d="M41.2832 34.5745L26.4416 48.5025C24.934 49.9173 22.5967 49.9501 21.05 48.5781L7.83357 36.8547L22.7001 23.042C24.2034 21.6452 26.5199 21.6126 28.0619 22.9665L41.2832 34.5745Z" fill="url(#paint0_linear_6_39)"/>
<path fill-rule="evenodd" clip-rule="evenodd" d="M50.6738 0.217237C53.0053 0.10016 54.9413 1.99631 54.8727 4.32979L54.3925 20.6588C54.3612 21.7226 53.9073 22.73 53.1313 23.4582L45.0238 31.0658L27.964 16.0882C26.422 14.7344 24.1056 14.767 22.6024 16.1637L3.99574 33.4512L3.27943 32.8157C1.51887 31.2539 1.4806 28.5171 3.1968 26.9066L29.492 2.2316C30.1831 1.58309 31.082 1.20102 32.0285 1.15349L50.6738 0.217237ZM47.43 4.55012C45.7813 4.67862 44.5494 6.10581 44.679 7.73789C44.8086 9.37001 46.2507 10.5891 47.8995 10.461C49.5485 10.3327 50.7802 8.90544 50.6505 7.2732C50.5209 5.64101 49.079 4.42181 47.43 4.55012Z" fill="url(#paint1_linear_6_39)"/>
<path d="M72.056 29.135H84.215L84.299 31.067H71.93L72.056 29.135ZM74.303 40.16C74.303 40.412 74.212 40.615 74.03 40.769C73.862 40.923 73.589 41 73.211 41H66.596C66.218 41 65.938 40.923 65.756 40.769C65.574 40.615 65.483 40.412 65.483 40.16C65.483 39.978 65.539 39.824 65.651 39.698C65.763 39.558 65.952 39.425 66.218 39.299L66.911 39.026C67.345 38.83 67.688 38.55 67.94 38.186C68.206 37.822 68.472 37.199 68.738 36.317L75.479 15.401C75.661 14.799 75.703 14.358 75.605 14.078C75.507 13.798 75.22 13.574 74.744 13.406C74.394 13.28 74.142 13.14 73.988 12.986C73.848 12.832 73.778 12.643 73.778 12.419C73.778 12.167 73.869 11.971 74.051 11.831C74.247 11.677 74.534 11.6 74.912 11.6H84.845C85.237 11.6 85.524 11.677 85.706 11.831C85.888 11.971 85.979 12.167 85.979 12.419C85.979 12.657 85.909 12.853 85.769 13.007C85.629 13.147 85.391 13.273 85.055 13.385C84.691 13.483 84.467 13.637 84.383 13.847C84.313 14.043 84.355 14.365 84.509 14.813L91.859 37.094C92.055 37.738 92.272 38.214 92.51 38.522C92.762 38.83 93.112 39.047 93.56 39.173C93.924 39.313 94.169 39.453 94.295 39.593C94.421 39.733 94.484 39.922 94.484 40.16C94.484 40.412 94.386 40.615 94.19 40.769C94.008 40.923 93.728 41 93.35 41H84.089C83.697 41 83.41 40.923 83.228 40.769C83.046 40.615 82.955 40.412 82.955 40.16C82.955 39.95 83.018 39.775 83.144 39.635C83.284 39.495 83.487 39.383 83.753 39.299L84.929 39.068C85.293 38.956 85.475 38.781 85.475 38.543C85.475 38.305 85.391 37.92 85.223 37.388L77.705 14.078L78.377 13.553L71.174 36.065C70.992 36.639 70.908 37.115 70.922 37.493C70.95 37.857 71.09 38.165 71.342 38.417C71.608 38.655 71.986 38.872 72.476 39.068L73.526 39.32C73.792 39.418 73.988 39.53 74.114 39.656C74.24 39.768 74.303 39.936 74.303 40.16ZM103.986 10.97V37.976C103.986 38.368 104.042 38.662 104.154 38.858C104.266 39.04 104.441 39.166 104.679 39.236L105.54 39.446C105.778 39.53 105.953 39.635 106.065 39.761C106.177 39.887 106.233 40.048 106.233 40.244C106.233 40.482 106.149 40.671 105.981 40.811C105.827 40.937 105.575 41 105.225 41H96.9295C96.5935 41 96.3415 40.937 96.1735 40.811C96.0195 40.671 95.9425 40.482 95.9425 40.244C95.9425 40.062 95.9915 39.908 96.0895 39.782C96.2015 39.642 96.3835 39.53 96.6355 39.446L97.4965 39.236C97.7485 39.166 97.9305 39.04 98.0425 38.858C98.1545 38.662 98.2105 38.368 98.2105 37.976V14.267C98.2105 13.959 98.1615 13.735 98.0635 13.595C97.9655 13.455 97.8045 13.364 97.5805 13.322L96.4465 13.259C96.2085 13.203 96.0405 13.126 95.9425 13.028C95.8445 12.916 95.7955 12.769 95.7955 12.587C95.7955 12.391 95.8585 12.23 95.9845 12.104C96.1105 11.978 96.3345 11.852 96.6565 11.726L100.878 10.277C101.368 10.095 101.753 9.969 102.033 9.899C102.313 9.829 102.558 9.794 102.768 9.794C103.174 9.794 103.475 9.899 103.671 10.109C103.881 10.319 103.986 10.606 103.986 10.97ZM116.558 10.97V37.976C116.558 38.368 116.614 38.662 116.726 38.858C116.838 39.04 117.013 39.166 117.251 39.236L118.112 39.446C118.35 39.53 118.525 39.635 118.637 39.761C118.749 39.887 118.805 40.048 118.805 40.244C118.805 40.482 118.721 40.671 118.553 40.811C118.399 40.937 118.147 41 117.797 41H109.502C109.166 41 108.914 40.937 108.746 40.811C108.592 40.671 108.515 40.482 108.515 40.244C108.515 40.062 108.564 39.908 108.662 39.782C108.774 39.642 108.956 39.53 109.208 39.446L110.069 39.236C110.321 39.166 110.503 39.04 110.615 38.858C110.727 38.662 110.783 38.368 110.783 37.976V14.267C110.783 13.959 110.734 13.735 110.636 13.595C110.538 13.455 110.377 13.364 110.153 13.322L109.019 13.259C108.781 13.203 108.613 13.126 108.515 13.028C108.417 12.916 108.368 12.769 108.368 12.587C108.368 12.391 108.431 12.23 108.557 12.104C108.683 11.978 108.907 11.852 109.229 11.726L113.45 10.277C113.94 10.095 114.325 9.969 114.605 9.899C114.885 9.829 115.13 9.794 115.34 9.794C115.746 9.794 116.047 9.899 116.243 10.109C116.453 10.319 116.558 10.606 116.558 10.97ZM128.365 25.25H134.875C135.785 25.25 136.429 25.068 136.807 24.704C137.199 24.34 137.486 23.633 137.668 22.583C137.738 22.289 137.85 22.072 138.004 21.932C138.158 21.778 138.347 21.694 138.571 21.68C139.047 21.652 139.355 21.918 139.495 22.478L141.175 28.883C141.259 29.205 141.259 29.464 141.175 29.66C141.091 29.842 140.923 29.968 140.671 30.038C140.433 30.122 140.209 30.129 139.999 30.059C139.789 29.989 139.607 29.835 139.453 29.597C139.019 28.911 138.62 28.386 138.256 28.022C137.906 27.658 137.521 27.413 137.101 27.287C136.681 27.147 136.142 27.077 135.484 27.077H128.365V25.25ZM121.12 12.44C121.12 12.174 121.211 11.971 121.393 11.831C121.575 11.677 121.855 11.6 122.233 11.6H138.487C138.963 11.6 139.362 11.537 139.684 11.411C140.006 11.271 140.3 11.138 140.566 11.012C140.832 10.872 141.126 10.802 141.448 10.802C141.812 10.802 142.092 10.907 142.288 11.117C142.484 11.327 142.652 11.677 142.792 12.167L144.493 18.32C144.591 18.628 144.591 18.887 144.493 19.097C144.395 19.293 144.213 19.44 143.947 19.538C143.639 19.636 143.359 19.629 143.107 19.517C142.869 19.391 142.673 19.174 142.519 18.866C141.917 17.732 141.364 16.808 140.86 16.094C140.37 15.38 139.88 14.834 139.39 14.456C138.9 14.064 138.382 13.798 137.836 13.658C137.29 13.518 136.674 13.448 135.988 13.448H130.591V37.262C130.591 37.892 130.773 38.368 131.137 38.69C131.501 38.998 132.04 39.152 132.754 39.152H136.534C137.472 39.152 138.291 38.984 138.991 38.648C139.705 38.312 140.405 37.675 141.091 36.737C141.791 35.785 142.561 34.378 143.401 32.516C143.541 32.236 143.709 32.047 143.905 31.949C144.115 31.837 144.353 31.802 144.619 31.844C144.927 31.9 145.144 32.04 145.27 32.264C145.396 32.474 145.417 32.754 145.333 33.104L143.464 40.37C143.338 40.832 143.17 41.175 142.96 41.399C142.764 41.623 142.463 41.735 142.057 41.735C141.777 41.735 141.497 41.672 141.217 41.546C140.951 41.434 140.65 41.315 140.314 41.189C139.992 41.063 139.593 41 139.117 41H122.233C121.855 41 121.575 40.923 121.393 40.769C121.211 40.615 121.12 40.412 121.12 40.16C121.12 39.698 121.379 39.39 121.897 39.236L123.178 38.963C123.514 38.865 123.766 38.732 123.934 38.564C124.102 38.382 124.186 38.144 124.186 37.85V14.75C124.186 14.456 124.102 14.225 123.934 14.057C123.766 13.875 123.514 13.735 123.178 13.637L121.897 13.364C121.379 13.21 121.12 12.902 121.12 12.44ZM155.891 39.824C156.857 39.824 157.606 39.586 158.138 39.11C158.67 38.62 158.936 37.997 158.936 37.241C158.936 36.765 158.831 36.338 158.621 35.96C158.411 35.568 158.012 35.211 157.424 34.889C156.836 34.553 155.982 34.252 154.862 33.986C152.79 33.524 151.18 32.964 150.032 32.306C148.884 31.634 148.086 30.864 147.638 29.996C147.19 29.114 146.966 28.141 146.966 27.077C146.966 25.159 147.638 23.647 148.982 22.541C150.34 21.421 152.279 20.861 154.799 20.861C155.723 20.861 156.479 20.938 157.067 21.092C157.655 21.246 158.131 21.407 158.495 21.575C158.859 21.729 159.174 21.806 159.44 21.806C159.72 21.806 159.951 21.729 160.133 21.575C160.329 21.407 160.518 21.246 160.7 21.092C160.896 20.924 161.127 20.84 161.393 20.84C161.575 20.84 161.743 20.903 161.897 21.029C162.051 21.155 162.177 21.379 162.275 21.701L163.619 26.216C163.759 26.636 163.801 26.986 163.745 27.266C163.689 27.532 163.521 27.721 163.241 27.833C162.961 27.945 162.716 27.952 162.506 27.854C162.31 27.742 162.114 27.546 161.918 27.266C161.274 26.104 160.588 25.18 159.86 24.494C159.132 23.794 158.369 23.29 157.571 22.982C156.787 22.674 155.968 22.52 155.114 22.52C153.938 22.52 153.049 22.772 152.447 23.276C151.859 23.766 151.565 24.424 151.565 25.25C151.565 25.754 151.691 26.209 151.943 26.615C152.195 27.021 152.664 27.399 153.35 27.749C154.05 28.085 155.044 28.407 156.332 28.715C158.11 29.121 159.517 29.632 160.553 30.248C161.603 30.864 162.352 31.606 162.8 32.474C163.262 33.342 163.493 34.35 163.493 35.498C163.493 36.688 163.185 37.738 162.569 38.648C161.953 39.544 161.099 40.244 160.007 40.748C158.929 41.252 157.683 41.504 156.269 41.504C155.373 41.504 154.645 41.413 154.085 41.231C153.539 41.049 153.084 40.867 152.72 40.685C152.37 40.503 152.048 40.412 151.754 40.412C151.474 40.412 151.222 40.503 150.998 40.685C150.788 40.853 150.578 41.028 150.368 41.21C150.172 41.392 149.955 41.483 149.717 41.483C149.535 41.483 149.374 41.413 149.234 41.273C149.094 41.147 148.996 40.916 148.94 40.58L148.1 36.38C148.002 35.89 147.981 35.526 148.037 35.288C148.107 35.036 148.268 34.861 148.52 34.763C148.786 34.651 149.017 34.665 149.213 34.805C149.423 34.931 149.64 35.162 149.864 35.498C150.76 37.052 151.719 38.165 152.741 38.837C153.777 39.495 154.827 39.824 155.891 39.824ZM167.153 23.171L166.04 22.877C165.746 22.779 165.536 22.667 165.41 22.541C165.298 22.415 165.242 22.261 165.242 22.079C165.242 21.841 165.326 21.659 165.494 21.533C165.662 21.407 165.879 21.344 166.145 21.344H167.51C167.818 21.344 168.07 21.288 168.266 21.176C168.462 21.064 168.665 20.861 168.875 20.567L171.437 17.249C171.689 16.927 171.934 16.689 172.172 16.535C172.424 16.381 172.669 16.304 172.907 16.304C173.159 16.304 173.355 16.388 173.495 16.556C173.649 16.724 173.726 16.962 173.726 17.27V35.183C173.726 36.191 173.922 36.961 174.314 37.493C174.706 38.011 175.252 38.27 175.952 38.27C176.428 38.27 176.806 38.179 177.086 37.997C177.366 37.801 177.59 37.584 177.758 37.346C177.94 37.094 178.108 36.856 178.262 36.632C178.43 36.408 178.633 36.261 178.871 36.191C179.053 36.177 179.193 36.233 179.291 36.359C179.403 36.471 179.459 36.674 179.459 36.968C179.417 37.78 179.144 38.529 178.64 39.215C178.15 39.887 177.471 40.426 176.603 40.832C175.749 41.224 174.762 41.42 173.642 41.42C171.878 41.42 170.492 40.986 169.484 40.118C168.49 39.236 167.993 37.899 167.993 36.107V24.305C167.993 23.969 167.93 23.724 167.804 23.57C167.678 23.402 167.461 23.269 167.153 23.171ZM171.521 23.15L171.542 21.344H178.388C178.682 21.344 178.906 21.4 179.06 21.512C179.228 21.624 179.312 21.792 179.312 22.016C179.312 22.338 179.151 22.611 178.829 22.835C178.507 23.045 177.989 23.15 177.275 23.15H171.521ZM193.507 38.438V38.039L193.129 37.997V25.313C193.129 24.319 192.884 23.556 192.394 23.024C191.918 22.492 191.232 22.226 190.336 22.226C189.51 22.226 188.873 22.408 188.425 22.772C187.977 23.136 187.753 23.577 187.753 24.095V25.922C187.753 26.748 187.473 27.392 186.913 27.854C186.367 28.302 185.604 28.526 184.624 28.526C183.812 28.526 183.189 28.33 182.755 27.938C182.321 27.532 182.104 26.972 182.104 26.258C182.104 25.404 182.454 24.564 183.154 23.738C183.854 22.912 184.89 22.226 186.262 21.68C187.648 21.134 189.342 20.861 191.344 20.861C193.878 20.861 195.761 21.379 196.993 22.415C198.239 23.451 198.862 24.851 198.862 26.615V37.535C198.862 37.941 198.939 38.249 199.093 38.459C199.261 38.655 199.492 38.753 199.786 38.753C200.08 38.753 200.304 38.683 200.458 38.543C200.626 38.389 200.759 38.221 200.857 38.039C200.927 37.955 200.997 37.885 201.067 37.829C201.151 37.759 201.242 37.724 201.34 37.724C201.494 37.724 201.606 37.78 201.676 37.892C201.746 38.004 201.781 38.151 201.781 38.333C201.781 38.767 201.62 39.229 201.298 39.719C200.99 40.209 200.514 40.629 199.87 40.979C199.24 41.329 198.449 41.504 197.497 41.504C196.265 41.504 195.292 41.231 194.578 40.685C193.864 40.125 193.507 39.376 193.507 38.438ZM181.18 36.653C181.18 34.945 181.936 33.566 183.448 32.516C184.974 31.452 187.13 30.92 189.916 30.92C190.826 30.92 191.631 31.004 192.331 31.172C193.031 31.326 193.647 31.529 194.179 31.781L193.78 32.936C193.29 32.726 192.793 32.558 192.289 32.432C191.799 32.292 191.26 32.222 190.672 32.222C189.538 32.222 188.649 32.53 188.005 33.146C187.375 33.762 187.06 34.609 187.06 35.687C187.06 36.779 187.333 37.612 187.879 38.186C188.439 38.746 189.16 39.026 190.042 39.026C190.77 39.026 191.47 38.858 192.142 38.522C192.814 38.186 193.381 37.724 193.843 37.136L194.263 38.165C193.521 39.229 192.52 40.055 191.26 40.643C190 41.217 188.656 41.504 187.228 41.504C185.436 41.504 183.98 41.056 182.86 40.16C181.74 39.264 181.18 38.095 181.18 36.653ZM204.15 23.171L203.037 22.877C202.743 22.779 202.533 22.667 202.407 22.541C202.295 22.415 202.239 22.261 202.239 22.079C202.239 21.841 202.323 21.659 202.491 21.533C202.659 21.407 202.876 21.344 203.142 21.344H204.507C204.815 21.344 205.067 21.288 205.263 21.176C205.459 21.064 205.662 20.861 205.872 20.567L208.434 17.249C208.686 16.927 208.931 16.689 209.169 16.535C209.421 16.381 209.666 16.304 209.904 16.304C210.156 16.304 210.352 16.388 210.492 16.556C210.646 16.724 210.723 16.962 210.723 17.27V35.183C210.723 36.191 210.919 36.961 211.311 37.493C211.703 38.011 212.249 38.27 212.949 38.27C213.425 38.27 213.803 38.179 214.083 37.997C214.363 37.801 214.587 37.584 214.755 37.346C214.937 37.094 215.105 36.856 215.259 36.632C215.427 36.408 215.63 36.261 215.868 36.191C216.05 36.177 216.19 36.233 216.288 36.359C216.4 36.471 216.456 36.674 216.456 36.968C216.414 37.78 216.141 38.529 215.637 39.215C215.147 39.887 214.468 40.426 213.6 40.832C212.746 41.224 211.759 41.42 210.639 41.42C208.875 41.42 207.489 40.986 206.481 40.118C205.487 39.236 204.99 37.899 204.99 36.107V24.305C204.99 23.969 204.927 23.724 204.801 23.57C204.675 23.402 204.458 23.269 204.15 23.171ZM208.518 23.15L208.539 21.344H215.385C215.679 21.344 215.903 21.4 216.057 21.512C216.225 21.624 216.309 21.792 216.309 22.016C216.309 22.338 216.148 22.611 215.826 22.835C215.504 23.045 214.986 23.15 214.272 23.15H208.518ZM236.91 28.82C236.91 29.464 236.721 29.968 236.343 30.332C235.965 30.682 235.426 30.857 234.726 30.857H221.622V29.429H230.148C230.792 29.429 231.114 29.135 231.114 28.547C231.114 26.601 230.778 25.138 230.106 24.158C229.434 23.164 228.545 22.667 227.439 22.667C226.585 22.667 225.829 22.933 225.171 23.465C224.513 23.983 223.995 24.753 223.617 25.775C223.253 26.783 223.071 28.001 223.071 29.429C223.071 32.173 223.701 34.231 224.961 35.603C226.235 36.961 227.908 37.64 229.98 37.64C231.254 37.64 232.36 37.374 233.298 36.842C234.25 36.296 234.95 35.533 235.398 34.553C235.608 34.315 235.776 34.154 235.902 34.07C236.042 33.986 236.182 33.944 236.322 33.944C236.504 33.944 236.637 34.028 236.721 34.196C236.819 34.364 236.868 34.574 236.868 34.826C236.798 36.044 236.378 37.164 235.608 38.186C234.838 39.194 233.795 39.999 232.479 40.601C231.177 41.203 229.679 41.504 227.985 41.504C226.011 41.504 224.261 41.098 222.735 40.286C221.209 39.46 220.012 38.305 219.144 36.821C218.276 35.323 217.842 33.58 217.842 31.592C217.842 29.492 218.255 27.637 219.081 26.027C219.921 24.403 221.111 23.136 222.651 22.226C224.205 21.302 226.053 20.84 228.195 20.84C230.015 20.84 231.576 21.183 232.878 21.869C234.18 22.555 235.174 23.5 235.86 24.704C236.56 25.894 236.91 27.266 236.91 28.82ZM251.13 41.609C249.954 41.609 248.953 41.462 248.127 41.168C247.301 40.888 246.629 40.608 246.111 40.328C245.607 40.048 245.229 39.908 244.977 39.908C244.739 39.908 244.522 39.999 244.326 40.181C244.144 40.349 243.962 40.552 243.78 40.79C243.612 41.028 243.43 41.231 243.234 41.399C243.052 41.581 242.835 41.672 242.583 41.672C242.331 41.672 242.114 41.588 241.932 41.42C241.764 41.266 241.645 41.007 241.575 40.643L240.105 33.461C240.063 33.195 240.098 32.964 240.21 32.768C240.322 32.572 240.511 32.425 240.777 32.327C241.071 32.229 241.323 32.236 241.533 32.348C241.757 32.46 241.953 32.677 242.121 32.999C242.975 34.693 243.864 36.03 244.788 37.01C245.726 37.99 246.692 38.69 247.686 39.11C248.68 39.516 249.688 39.719 250.71 39.719C252.152 39.719 253.286 39.341 254.112 38.585C254.952 37.829 255.379 36.8 255.393 35.498C255.393 34.672 255.204 33.916 254.826 33.23C254.448 32.544 253.734 31.886 252.684 31.256C251.648 30.626 250.129 29.989 248.127 29.345C245.999 28.631 244.291 27.826 243.003 26.93C241.715 26.02 240.777 24.97 240.189 23.78C239.615 22.576 239.328 21.19 239.328 19.622C239.328 17.928 239.734 16.437 240.546 15.149C241.358 13.861 242.499 12.86 243.969 12.146C245.439 11.432 247.147 11.075 249.093 11.075C250.339 11.075 251.368 11.208 252.18 11.474C253.006 11.726 253.678 11.992 254.196 12.272C254.714 12.538 255.134 12.671 255.456 12.671C255.75 12.671 255.995 12.538 256.191 12.272C256.387 11.992 256.59 11.712 256.8 11.432C257.024 11.152 257.318 11.012 257.682 11.012C257.948 11.012 258.172 11.096 258.354 11.264C258.536 11.432 258.69 11.754 258.816 12.23L260.853 19.433C260.937 19.755 260.923 20.042 260.811 20.294C260.713 20.532 260.524 20.7 260.244 20.798C259.95 20.896 259.691 20.889 259.467 20.777C259.243 20.665 259.061 20.462 258.921 20.168C257.997 18.348 257.024 16.913 256.002 15.863C254.994 14.813 253.958 14.064 252.894 13.616C251.844 13.168 250.78 12.944 249.702 12.944C248.26 12.944 247.105 13.364 246.237 14.204C245.383 15.044 244.956 16.15 244.956 17.522C244.956 18.348 245.145 19.118 245.523 19.832C245.901 20.546 246.594 21.232 247.602 21.89C248.624 22.548 250.094 23.227 252.012 23.927C254.196 24.725 255.932 25.572 257.22 26.468C258.508 27.364 259.425 28.372 259.971 29.492C260.531 30.612 260.811 31.893 260.811 33.335C260.811 34.861 260.426 36.254 259.656 37.514C258.9 38.76 257.801 39.754 256.359 40.496C254.917 41.238 253.174 41.609 251.13 41.609ZM275.869 38.438V38.039L275.491 37.997V25.313C275.491 24.319 275.246 23.556 274.756 23.024C274.28 22.492 273.594 22.226 272.698 22.226C271.872 22.226 271.235 22.408 270.787 22.772C270.339 23.136 270.115 23.577 270.115 24.095V25.922C270.115 26.748 269.835 27.392 269.275 27.854C268.729 28.302 267.966 28.526 266.986 28.526C266.174 28.526 265.551 28.33 265.117 27.938C264.683 27.532 264.466 26.972 264.466 26.258C264.466 25.404 264.816 24.564 265.516 23.738C266.216 22.912 267.252 22.226 268.624 21.68C270.01 21.134 271.704 20.861 273.706 20.861C276.24 20.861 278.123 21.379 279.355 22.415C280.601 23.451 281.224 24.851 281.224 26.615V37.535C281.224 37.941 281.301 38.249 281.455 38.459C281.623 38.655 281.854 38.753 282.148 38.753C282.442 38.753 282.666 38.683 282.82 38.543C282.988 38.389 283.121 38.221 283.219 38.039C283.289 37.955 283.359 37.885 283.429 37.829C283.513 37.759 283.604 37.724 283.702 37.724C283.856 37.724 283.968 37.78 284.038 37.892C284.108 38.004 284.143 38.151 284.143 38.333C284.143 38.767 283.982 39.229 283.66 39.719C283.352 40.209 282.876 40.629 282.232 40.979C281.602 41.329 280.811 41.504 279.859 41.504C278.627 41.504 277.654 41.231 276.94 40.685C276.226 40.125 275.869 39.376 275.869 38.438ZM263.542 36.653C263.542 34.945 264.298 33.566 265.81 32.516C267.336 31.452 269.492 30.92 272.278 30.92C273.188 30.92 273.993 31.004 274.693 31.172C275.393 31.326 276.009 31.529 276.541 31.781L276.142 32.936C275.652 32.726 275.155 32.558 274.651 32.432C274.161 32.292 273.622 32.222 273.034 32.222C271.9 32.222 271.011 32.53 270.367 33.146C269.737 33.762 269.422 34.609 269.422 35.687C269.422 36.779 269.695 37.612 270.241 38.186C270.801 38.746 271.522 39.026 272.404 39.026C273.132 39.026 273.832 38.858 274.504 38.522C275.176 38.186 275.743 37.724 276.205 37.136L276.625 38.165C275.883 39.229 274.882 40.055 273.622 40.643C272.362 41.217 271.018 41.504 269.59 41.504C267.798 41.504 266.342 41.056 265.222 40.16C264.102 39.264 263.542 38.095 263.542 36.653ZM293.527 10.97V37.976C293.527 38.368 293.583 38.662 293.695 38.858C293.807 39.04 293.982 39.166 294.22 39.236L295.081 39.446C295.319 39.53 295.494 39.635 295.606 39.761C295.718 39.887 295.774 40.048 295.774 40.244C295.774 40.482 295.69 40.671 295.522 40.811C295.368 40.937 295.116 41 294.766 41H286.471C286.135 41 285.883 40.937 285.715 40.811C285.561 40.671 285.484 40.482 285.484 40.244C285.484 40.062 285.533 39.908 285.631 39.782C285.743 39.642 285.925 39.53 286.177 39.446L287.038 39.236C287.29 39.166 287.472 39.04 287.584 38.858C287.696 38.662 287.752 38.368 287.752 37.976V14.267C287.752 13.959 287.703 13.735 287.605 13.595C287.507 13.455 287.346 13.364 287.122 13.322L285.988 13.259C285.75 13.203 285.582 13.126 285.484 13.028C285.386 12.916 285.337 12.769 285.337 12.587C285.337 12.391 285.4 12.23 285.526 12.104C285.652 11.978 285.876 11.852 286.198 11.726L290.419 10.277C290.909 10.095 291.294 9.969 291.574 9.899C291.854 9.829 292.099 9.794 292.309 9.794C292.715 9.794 293.016 9.899 293.212 10.109C293.422 10.319 293.527 10.606 293.527 10.97ZM316.443 28.82C316.443 29.464 316.254 29.968 315.876 30.332C315.498 30.682 314.959 30.857 314.259 30.857H301.155V29.429H309.681C310.325 29.429 310.647 29.135 310.647 28.547C310.647 26.601 310.311 25.138 309.639 24.158C308.967 23.164 308.078 22.667 306.972 22.667C306.118 22.667 305.362 22.933 304.704 23.465C304.046 23.983 303.528 24.753 303.15 25.775C302.786 26.783 302.604 28.001 302.604 29.429C302.604 32.173 303.234 34.231 304.494 35.603C305.768 36.961 307.441 37.64 309.513 37.64C310.787 37.64 311.893 37.374 312.831 36.842C313.783 36.296 314.483 35.533 314.931 34.553C315.141 34.315 315.309 34.154 315.435 34.07C315.575 33.986 315.715 33.944 315.855 33.944C316.037 33.944 316.17 34.028 316.254 34.196C316.352 34.364 316.401 34.574 316.401 34.826C316.331 36.044 315.911 37.164 315.141 38.186C314.371 39.194 313.328 39.999 312.012 40.601C310.71 41.203 309.212 41.504 307.518 41.504C305.544 41.504 303.794 41.098 302.268 40.286C300.742 39.46 299.545 38.305 298.677 36.821C297.809 35.323 297.375 33.58 297.375 31.592C297.375 29.492 297.788 27.637 298.614 26.027C299.454 24.403 300.644 23.136 302.184 22.226C303.738 21.302 305.586 20.84 307.728 20.84C309.548 20.84 311.109 21.183 312.411 21.869C313.713 22.555 314.707 23.5 315.393 24.704C316.093 25.894 316.443 27.266 316.443 28.82ZM327.323 39.824C328.289 39.824 329.038 39.586 329.57 39.11C330.102 38.62 330.368 37.997 330.368 37.241C330.368 36.765 330.263 36.338 330.053 35.96C329.843 35.568 329.444 35.211 328.856 34.889C328.268 34.553 327.414 34.252 326.294 33.986C324.222 33.524 322.612 32.964 321.464 32.306C320.316 31.634 319.518 30.864 319.07 29.996C318.622 29.114 318.398 28.141 318.398 27.077C318.398 25.159 319.07 23.647 320.414 22.541C321.772 21.421 323.711 20.861 326.231 20.861C327.155 20.861 327.911 20.938 328.499 21.092C329.087 21.246 329.563 21.407 329.927 21.575C330.291 21.729 330.606 21.806 330.872 21.806C331.152 21.806 331.383 21.729 331.565 21.575C331.761 21.407 331.95 21.246 332.132 21.092C332.328 20.924 332.559 20.84 332.825 20.84C333.007 20.84 333.175 20.903 333.329 21.029C333.483 21.155 333.609 21.379 333.707 21.701L335.051 26.216C335.191 26.636 335.233 26.986 335.177 27.266C335.121 27.532 334.953 27.721 334.673 27.833C334.393 27.945 334.148 27.952 333.938 27.854C333.742 27.742 333.546 27.546 333.35 27.266C332.706 26.104 332.02 25.18 331.292 24.494C330.564 23.794 329.801 23.29 329.003 22.982C328.219 22.674 327.4 22.52 326.546 22.52C325.37 22.52 324.481 22.772 323.879 23.276C323.291 23.766 322.997 24.424 322.997 25.25C322.997 25.754 323.123 26.209 323.375 26.615C323.627 27.021 324.096 27.399 324.782 27.749C325.482 28.085 326.476 28.407 327.764 28.715C329.542 29.121 330.949 29.632 331.985 30.248C333.035 30.864 333.784 31.606 334.232 32.474C334.694 33.342 334.925 34.35 334.925 35.498C334.925 36.688 334.617 37.738 334.001 38.648C333.385 39.544 332.531 40.244 331.439 40.748C330.361 41.252 329.115 41.504 327.701 41.504C326.805 41.504 326.077 41.413 325.517 41.231C324.971 41.049 324.516 40.867 324.152 40.685C323.802 40.503 323.48 40.412 323.186 40.412C322.906 40.412 322.654 40.503 322.43 40.685C322.22 40.853 322.01 41.028 321.8 41.21C321.604 41.392 321.387 41.483 321.149 41.483C320.967 41.483 320.806 41.413 320.666 41.273C320.526 41.147 320.428 40.916 320.372 40.58L319.532 36.38C319.434 35.89 319.413 35.526 319.469 35.288C319.539 35.036 319.7 34.861 319.952 34.763C320.218 34.651 320.449 34.665 320.645 34.805C320.855 34.931 321.072 35.162 321.296 35.498C322.192 37.052 323.151 38.165 324.173 38.837C325.209 39.495 326.259 39.824 327.323 39.824Z" fill="white"/>
<defs>
<linearGradient id="paint0_linear_6_39" x1="27.5" y1="0" x2="27.5" y2="51" gradientUnits="userSpaceOnUse">
<stop stop-color="#D1FFE4"/>
<stop offset="1" stop-color="#B6FFD5"/>
</linearGradient>
<linearGradient id="paint1_linear_6_39" x1="27.5" y1="0" x2="27.5" y2="51" gradientUnits="userSpaceOnUse">
<stop stop-color="#D1FFE4"/>
<stop offset="1" stop-color="#B6FFD5"/>
</linearGradient>
</defs>
</svg>
